<?xml version="1.0" encoding="UTF-8" standalone="no"?>
<!DOCTYPE svg PUBLIC "-//W3C//DTD SVG 1.1//EN" "http://www.w3.org/Graphics/SVG/1.1/DTD/svg11.dtd">
<svg width="100%" height="100%" viewBox="0 0 34 32" version="1.1" xmlns="http://www.w3.org/2000/svg" xmlns:xlink="http://www.w3.org/1999/xlink" xml:space="preserve" xmlns:serif="http://www.serif.com/" style="fill-rule:evenodd;clip-rule:evenodd;stroke-linejoin:round;stroke-miterlimit:1.41421;">
    <path d="M3,0L31,0C32.746,0 34,1.424 34,3.181L34,21C34,22.757 32.746,24 31,24L16,24L8,32L8,24L3,24C1.254,24 0,22.757 0,21L0,3.181C0,1.424 1.254,0 3,0ZM14,16C15.105,16 16,16.895 16,18C16,19.105 15.105,20 14,20C12.895,20 12,19.105 12,18C12,16.895 12.895,16 14,16ZM20,16C21.105,16 22,16.895 22,18C22,19.105 21.105,20 20,20C18.895,20 18,19.105 18,18C18,16.895 18.895,16 20,16ZM26,16C27.105,16 28,16.895 28,18C28,19.105 27.105,20 26,20C24.895,20 24,19.105 24,18C24,16.895 24.895,16 26,16ZM8,16C9.105,16 10,16.895 10,18C10,19.105 9.105,20 8,20C6.895,20 6,19.105 6,18C6,16.895 6.895,16 8,16Z"/>
</svg>
