<?xml version="1.0" encoding="UTF-8" standalone="no"?>
<!DOCTYPE svg PUBLIC "-//W3C//DTD SVG 1.1//EN" "http://www.w3.org/Graphics/SVG/1.1/DTD/svg11.dtd">
<svg width="100%" height="100%" viewBox="0 0 36 29" version="1.1" xmlns="http://www.w3.org/2000/svg" xmlns:xlink="http://www.w3.org/1999/xlink" xml:space="preserve" xmlns:serif="http://www.serif.com/" style="fill-rule:evenodd;clip-rule:evenodd;stroke-linejoin:round;stroke-miterlimit:1.41421;">
    <g id="tabs" transform="matrix(1,0,0,1,-202.268,-88.2679)">
        <g transform="matrix(1.01702,0,0,0.98524,-4.25194,1.51493)">
            <path d="M213.355,89.058C215.129,89.126 216.552,90.769 216.57,92.734L216.57,94.057C222.343,94.057 228.118,93.985 233.891,94.058C234.459,94.08 234.653,94.148 235.01,94.299C236.096,94.759 236.866,95.883 236.912,97.107C236.968,101.502 236.995,105.9 236.911,110.295C236.817,113.292 234.174,115.886 231.219,115.942C224.049,115.988 216.877,116.077 209.707,115.941C206.79,115.849 204.145,113.277 204.087,110.22C204.05,104.391 204.087,98.562 204.087,92.732C204.111,90.803 205.745,89.131 207.645,89.058C209.548,89.034 211.452,89.034 213.355,89.058ZM207.744,90.943C206.806,90.955 205.951,91.719 205.914,92.692C205.84,98.543 205.803,104.396 205.915,110.246C205.979,112.277 207.789,114.019 209.803,114.057C216.951,114.102 224.101,114.192 231.248,114.056C233.236,113.993 235.047,112.281 235.086,110.196C235.114,105.839 235.25,101.478 235.085,97.124C235.034,96.326 233.807,95.943 233.807,95.943L214.792,95.943C214.792,93.847 214.911,91.005 213.309,90.943C211.454,90.92 209.599,90.943 207.744,90.943Z" style="fill-rule:nonzero;"/>
        </g>
        <g transform="matrix(1,0,0,1,202.385,87.9092)">
            <path d="M15.732,4.326L15.732,2.732L19.732,2.732C20.745,2.732 21.515,3.376 21.509,4.289L21.509,5.375L19.825,5.365L19.821,4.955C19.717,4.529 19.66,4.338 19.112,4.338L15.732,4.326Z"/>
        </g>
        <g transform="matrix(1,0,0,1,209.208,87.9092)">
            <path d="M15.732,4.326L15.732,2.732L19.732,2.732C20.745,2.732 21.515,3.376 21.509,4.289L21.509,5.375L19.825,5.365L19.821,4.955C19.717,4.529 19.66,4.338 19.112,4.338L15.732,4.326Z"/>
        </g>
    </g>
</svg>
