<?xml version="1.0" encoding="UTF-8" standalone="no"?>
<!DOCTYPE svg PUBLIC "-//W3C//DTD SVG 1.1//EN" "http://www.w3.org/Graphics/SVG/1.1/DTD/svg11.dtd">
<svg width="100%" height="100%" viewBox="0 0 30 20" version="1.1" xmlns="http://www.w3.org/2000/svg" xmlns:xlink="http://www.w3.org/1999/xlink" xml:space="preserve" xmlns:serif="http://www.serif.com/" style="fill-rule:evenodd;clip-rule:evenodd;stroke-linejoin:round;stroke-miterlimit:1.41421;">
    <g id="slides" transform="matrix(1,0,0,1,-484.807,-12.0415)">
        <path d="M498.676,26.299L508.883,29.831C509.344,29.991 509.854,29.728 510.021,29.245L512.249,22.806C512.417,22.323 512.179,21.801 511.718,21.641L505.711,19.563L506.029,20.513C506.581,22.194 505.694,23.995 504.049,24.535L498.676,26.299ZM504.843,16.97L512.249,19.533C513.886,20.099 514.743,21.914 514.164,23.587L512.045,29.827C511.466,31.5 509.67,32.397 508.033,31.83L495.276,27.415L491.041,28.805C489.396,29.345 487.614,28.419 487.062,26.737L484.971,20.487C484.419,18.806 485.306,17.005 486.951,16.465L499.959,12.195C501.604,11.655 503.386,12.581 503.938,14.263L504.843,16.97ZM501.941,14.801C501.781,14.315 501.276,14.044 500.813,14.196L487.449,18.582C486.985,18.734 486.739,19.251 486.898,19.738L489.023,26.211C489.183,26.697 489.688,26.968 490.151,26.816L503.515,22.43C503.979,22.278 504.225,21.76 504.065,21.274L501.941,14.801Z"/>
    </g>
</svg>
