<?xml version="1.0" encoding="UTF-8" standalone="no"?>
<!DOCTYPE svg PUBLIC "-//W3C//DTD SVG 1.1//EN" "http://www.w3.org/Graphics/SVG/1.1/DTD/svg11.dtd">
<svg width="100%" height="100%" viewBox="0 0 34 28" version="1.1" xmlns="http://www.w3.org/2000/svg" xmlns:xlink="http://www.w3.org/1999/xlink" xml:space="preserve" xmlns:serif="http://www.serif.com/" style="fill-rule:evenodd;clip-rule:evenodd;stroke-linejoin:round;stroke-miterlimit:1.41421;">
    <g id="FullScreen" transform="matrix(1,0,0,1,-363,-6)">
        <g>
            <g>
                <g transform="matrix(1,0,0,1,-2,2.84217e-14)">
                    <path d="M368.492,8.078L371.207,10.793L369.793,12.207L367.078,9.492L365,11.57L365.014,7.428L365,7.414L365.014,7.4L365.019,6.019L366.4,6.014L366.414,6L366.428,6.014L370.57,6L368.492,8.078Z"/>
                </g>
                <g transform="matrix(1,0,0,-1,-2,40)">
                    <path d="M368.492,8.078L371.207,10.793L369.793,12.207L367.078,9.492L365,11.57L365.014,7.428L365,7.414L365.014,7.4L365.019,6.019L366.4,6.014L366.414,6L366.428,6.014L370.57,6L368.492,8.078Z"/>
                </g>
                <g transform="matrix(-1,0,0,1,762,2.84217e-14)">
                    <path d="M368.492,8.078L371.207,10.793L369.793,12.207L367.078,9.492L365,11.57L365.014,7.428L365,7.414L365.014,7.4L365.019,6.019L366.4,6.014L366.414,6L366.428,6.014L370.57,6L368.492,8.078Z"/>
                </g>
                <g transform="matrix(-1,0,0,-1,762,40)">
                    <path d="M368.492,8.078L371.207,10.793L369.793,12.207L367.078,9.492L365,11.57L365.014,7.428L365,7.414L365.014,7.4L365.019,6.019L366.4,6.014L366.414,6L366.428,6.014L370.57,6L368.492,8.078Z"/>
                </g>
                <g transform="matrix(1,0,0,0.886475,0,2.17871)">
                    <rect x="369" y="12.207" width="22" height="15.793"/>
                </g>
                <g transform="matrix(1,0,0,1,-0.0588586,-0.780796)">
                </g>
            </g>
        </g>
    </g>
</svg>
