<?xml version="1.0" encoding="UTF-8" standalone="no"?>
<!DOCTYPE svg PUBLIC "-//W3C//DTD SVG 1.1//EN" "http://www.w3.org/Graphics/SVG/1.1/DTD/svg11.dtd">
<svg width="100%" height="100%" viewBox="0 0 41 41" version="1.1" xmlns="http://www.w3.org/2000/svg" xmlns:xlink="http://www.w3.org/1999/xlink" xml:space="preserve" xmlns:serif="http://www.serif.com/" style="fill-rule:evenodd;clip-rule:evenodd;stroke-linejoin:round;stroke-miterlimit:1.41421;">
    <g transform="matrix(0.422744,-0.422744,0.422744,0.422744,-257.662,279.539)">
        <path d="M654.5,27L654.5,27.901C654.5,32.926 650.426,37 645.401,37L623.599,37C618.574,37 614.5,32.926 614.5,27.901L614.5,27L607,27C604.515,27 602.5,24.985 602.5,22.5C602.5,20.015 604.515,18 607,18L614.5,18L614.5,16.099C614.5,11.074 618.574,7 623.599,7L645.401,7C650.426,7 654.5,11.074 654.5,16.099L654.5,18L663.75,18C666.235,18 668.25,20.015 668.25,22.5C668.25,24.985 666.235,27 663.75,27L654.5,27ZM622.131,27C622.922,28.993 624.343,30 626,30L644,30C645.657,30 647.078,28.993 647.874,26.981C645.08,26.228 643.75,24.519 643.75,22.5C643.75,20.364 645.238,18.576 648,18.013L648,18C648,15.791 646.209,14 644,14L626,14C624.102,14 622.512,15.323 622,18L622.5,18C624.985,18 627,20.015 627,22.5C627,24.985 624.985,27 622.5,27L622.131,27Z"/>
    </g>
</svg>
