<?xml version="1.0" encoding="UTF-8" standalone="no"?>
<!DOCTYPE svg PUBLIC "-//W3C//DTD SVG 1.1//EN" "http://www.w3.org/Graphics/SVG/1.1/DTD/svg11.dtd">
<svg width="100%" height="100%" viewBox="0 0 36 30" version="1.1" xmlns="http://www.w3.org/2000/svg" xmlns:xlink="http://www.w3.org/1999/xlink" xml:space="preserve" xmlns:serif="http://www.serif.com/" style="fill-rule:evenodd;clip-rule:evenodd;stroke-linejoin:round;stroke-miterlimit:1.41421;">
    <g id="paint-brush" serif:id="paint brush" transform="matrix(0.885147,0,0,0.824442,-1233.95,-798.732)">
        <path d="M1430.58,976.398C1428.68,978.704 1423.48,985.072 1419.35,990.131L1414.1,984.806C1418.85,980.584 1424.72,975.364 1426.84,973.494C1430.62,970.168 1433.93,968.187 1434.65,968.996C1435.1,969.446 1433.9,972.352 1430.58,976.398ZM1418.43,991.252C1416.83,993.212 1415.46,994.898 1414.61,995.931L1408.4,989.88C1409.41,988.984 1411.09,987.492 1413.03,985.764L1418.43,991.252ZM1413.69,997.066L1413.69,997.048C1410.08,1010.88 1394.07,1002.93 1394.07,1002.93C1394.07,1002.93 1400.79,1003.78 1400.79,997.507C1400.79,991.429 1406.96,990.881 1407.34,990.853L1413.7,997.05C1413.7,997.051 1413.69,997.066 1413.69,997.066Z"/>
    </g>
</svg>
