<?xml version="1.0" encoding="UTF-8" standalone="no"?>
<!DOCTYPE svg PUBLIC "-//W3C//DTD SVG 1.1//EN" "http://www.w3.org/Graphics/SVG/1.1/DTD/svg11.dtd">
<svg width="100%" height="100%" viewBox="0 0 33 30" version="1.1" xmlns="http://www.w3.org/2000/svg" xmlns:xlink="http://www.w3.org/1999/xlink" xml:space="preserve" xmlns:serif="http://www.serif.com/" style="fill-rule:evenodd;clip-rule:evenodd;stroke-linejoin:round;stroke-miterlimit:1.41421;">
    <path d="M23,29.888L0,29.888L0,7.888L23,7.888L23,29.888ZM11,6.888L8.903,6.888L10.5,0L33,5.817L27,27.888L24,27.388L23.994,20.288L27,20.888L30.519,7.199L11.933,2.394L11,6.888ZM21,9.888L1.969,9.888L1.969,23.888L21,23.888L21,9.888ZM7.912,19.349L10.236,15.813L12.561,18.017L15.757,13.49L19,21.888L3.939,21.888L6.169,17.726L7.912,19.349ZM6.473,15.608C5.647,15.608 4.977,14.966 4.977,14.173C4.977,13.381 5.647,12.739 6.473,12.739C7.299,12.739 7.969,13.381 7.969,14.173C7.969,14.966 7.299,15.608 6.473,15.608Z"/>
</svg>
