<?xml version="1.0" encoding="UTF-8" standalone="no"?>
<!DOCTYPE svg PUBLIC "-//W3C//DTD SVG 1.1//EN" "http://www.w3.org/Graphics/SVG/1.1/DTD/svg11.dtd">
<svg width="100%" height="100%" viewBox="0 0 39 33" version="1.1" xmlns="http://www.w3.org/2000/svg" xmlns:xlink="http://www.w3.org/1999/xlink" xml:space="preserve" xmlns:serif="http://www.serif.com/" style="fill-rule:evenodd;clip-rule:evenodd;stroke-linejoin:round;stroke-miterlimit:1.41421;">
    <path d="M38.02,33L20.02,33L20.02,16L38.02,16L38.02,33ZM18.1,31.479L17.261,28.744C17.261,28.744 15.373,29.986 14.365,29.504C13.356,29.022 13.141,28.161 13.141,28.161L15.089,26L10.02,26L10.02,31.317L12.04,29.194C12.04,29.194 12.571,31.145 13.809,31.959C15.732,33.224 18.1,31.479 18.1,31.479ZM35.846,31C35.844,30.985 35.419,26.773 34.821,25.622C34.222,24.47 31.242,24.429 31.242,24.429C31.242,24.429 30.557,27.413 30.373,27.982C30.189,28.55 30.15,28.681 30.15,28.681C30.15,28.681 29.686,25.798 29.604,25.505C29.543,25.285 29.143,25.271 29.058,25.271C28.973,25.271 28.573,25.297 28.512,25.516C28.431,25.809 28.097,28.617 28.097,28.617C28.097,28.617 27.995,28.55 27.811,27.982C27.627,27.413 26.874,24.429 26.874,24.429C26.874,24.429 23.894,24.47 23.295,25.622C22.696,26.775 22.27,31 22.27,31L35.846,31ZM30.15,24.429C30.209,24.682 29.406,25.228 29.406,25.228L28.763,25.212C28.763,25.212 27.907,24.682 27.966,24.429C28.02,24.196 28.753,24.222 29.058,24.219C29.365,24.222 30.096,24.196 30.15,24.429ZM25.02,15L22.02,15L22.02,3L23.02,3L23.02,2L2.02,2L2.02,3L3.02,3L3.02,17L11.79,17L8.396,21.381C8.078,21.995 8.205,22.353 8.367,22.49C8.531,22.629 8.944,22.69 9.341,22.282L12.926,18.594L16.429,22.282C16.589,22.542 16.931,22.561 17.322,22.405C17.601,22.293 17.521,21.746 17.374,21.381L13.875,17L19.02,17L19.02,24L0,24L0,0L25.02,0L25.02,15ZM29.058,17.067C30.719,17.067 32.068,18.527 32.068,20.326C32.068,22.125 30.719,23.586 29.058,23.586C27.397,23.586 26.048,22.125 26.048,20.326C26.048,18.527 27.397,17.067 29.058,17.067ZM21.02,15L21.02,3L4.02,3L4.02,16L19.02,16L19.02,15L21.02,15ZM35.1,14L30.032,14L31.98,11.839C31.98,11.839 31.765,10.978 30.756,10.496C29.747,10.014 27.86,11.256 27.86,11.256L27.02,8.521C27.02,8.521 29.389,6.776 31.312,8.041C32.55,8.855 33.081,10.806 33.081,10.806L35.1,8.683L35.1,14ZM10.744,7.462L6.356,13.008L5.922,12.61L10.727,6.537L13.847,9.959L18.147,5.333L18.55,5.767L13.846,10.826L10.744,7.462Z"/>
</svg>
