<?xml version="1.0" encoding="UTF-8" standalone="no"?>
<!DOCTYPE svg PUBLIC "-//W3C//DTD SVG 1.1//EN" "http://www.w3.org/Graphics/SVG/1.1/DTD/svg11.dtd">
<svg width="100%" height="100%" viewBox="0 0 34 32" version="1.1" xmlns="http://www.w3.org/2000/svg" xmlns:xlink="http://www.w3.org/1999/xlink" xml:space="preserve" xmlns:serif="http://www.serif.com/" style="fill-rule:evenodd;clip-rule:evenodd;stroke-linejoin:round;stroke-miterlimit:1.41421;">
    <path d="M34,32L0,32L0,6L34,6L34,32ZM32,8L2,8L2,30L32,30L32,8ZM17,11C21.415,11 25,14.585 25,19C25,23.415 21.415,27 17,27C12.585,27 9,23.415 9,19C9,14.585 12.585,11 17,11ZM22.424,19.139L14,24.5L14,13.779L22.424,19.139ZM32,4L32,5L2,5L2,4L32,4ZM30,2L30,3L4,3L4,2L30,2ZM28,0L28,1L6,1L6,0L28,0Z"/>
</svg>
