<?xml version="1.0" encoding="UTF-8" standalone="no"?>
<!DOCTYPE svg PUBLIC "-//W3C//DTD SVG 1.1//EN" "http://www.w3.org/Graphics/SVG/1.1/DTD/svg11.dtd">
<svg width="100%" height="100%" viewBox="0 0 41 41" version="1.1" xmlns="http://www.w3.org/2000/svg" xmlns:xlink="http://www.w3.org/1999/xlink" xml:space="preserve" xmlns:serif="http://www.serif.com/" style="fill-rule:evenodd;clip-rule:evenodd;stroke-linejoin:round;stroke-miterlimit:1.41421;">
    <g id="edit" transform="matrix(0.679217,0.679217,-0.679217,0.679217,-80.1416,-171.496)">
        <g>
            <g transform="matrix(0.736141,-0.736141,0.736141,0.736141,185.241,67.25)">
                <path d="M27.169,6.453L33.963,13.246L18.39,28.819C18.242,28.104 17.816,27.325 17.15,26.659C16.485,25.994 15.708,25.569 14.993,25.42C14.845,24.706 14.419,23.928 13.754,23.263C13.089,22.598 12.312,22.173 11.597,22.024L27.169,6.453ZM31.25,13.251L29.892,11.892L17.55,24.234L18.908,25.593L31.25,13.251ZM28.533,10.534L27.175,9.176L14.906,21.445L16.264,22.803L28.533,10.534ZM28.527,5.094L30.045,3.577C31.081,2.54 32.765,2.54 33.802,3.577L36.838,6.613C37.875,7.65 37.875,9.334 36.838,10.371L35.321,11.888L28.527,5.094Z"/>
            </g>
            <g transform="matrix(0.736141,-0.736141,0.736141,0.736141,185.241,67.25)">
                <path d="M6.827,31.279L9.133,33.585L5.094,35.319L6.827,31.279ZM7.642,29.377L10.195,23.426C10.824,23.241 11.8,23.642 12.553,24.394C13.246,25.088 13.715,26.058 13.64,26.698C13.632,26.739 13.64,26.78 13.663,26.814C13.687,26.848 13.722,26.871 13.763,26.879C14.189,26.963 15.397,27.239 16.01,27.852C16.763,28.605 17.176,29.582 16.991,30.212L11.034,32.769L7.642,29.377Z"/>
            </g>
        </g>
    </g>
</svg>
