<?xml version="1.0" encoding="UTF-8" standalone="no"?>
<!DOCTYPE svg PUBLIC "-//W3C//DTD SVG 1.1//EN" "http://www.w3.org/Graphics/SVG/1.1/DTD/svg11.dtd">
<svg width="100%" height="100%" viewBox="0 0 20 20" version="1.1" xmlns="http://www.w3.org/2000/svg" xmlns:xlink="http://www.w3.org/1999/xlink" xml:space="preserve" xmlns:serif="http://www.serif.com/" style="fill-rule:evenodd;clip-rule:evenodd;stroke-linejoin:round;stroke-miterlimit:1.41421;">
    <path d="M17,0C18.656,0 20,1.344 20,3L20,20L0,20L0,3C0,1.344 1.344,0 3,0L17,0ZM19,6L1,6L1,19L19,19L19,6ZM7.5,2C8.328,2 9,2.672 9,3.5C9,4.328 8.328,5 7.5,5C6.672,5 6,4.328 6,3.5C6,2.672 6.672,2 7.5,2ZM3.5,2C4.328,2 5,2.672 5,3.5C5,4.328 4.328,5 3.5,5C2.672,5 2,4.328 2,3.5C2,2.672 2.672,2 3.5,2ZM11.5,2C12.328,2 13,2.672 13,3.5C13,4.328 12.328,5 11.5,5C10.672,5 10,4.328 10,3.5C10,2.672 10.672,2 11.5,2Z"/>
</svg>
