<?xml version="1.0" encoding="UTF-8" standalone="no"?>
<!DOCTYPE svg PUBLIC "-//W3C//DTD SVG 1.1//EN" "http://www.w3.org/Graphics/SVG/1.1/DTD/svg11.dtd">
<svg width="100%" height="100%" viewBox="0 0 34 34" version="1.1" xmlns="http://www.w3.org/2000/svg" xmlns:xlink="http://www.w3.org/1999/xlink" xml:space="preserve" xmlns:serif="http://www.serif.com/" style="fill-rule:evenodd;clip-rule:evenodd;stroke-linejoin:round;stroke-miterlimit:1.41421;">
    <path d="M34,34L0,34L0,0L34,0L34,34ZM23,20L2,20L2,32L23,32L23,20ZM32,2L25,2L25,32L32,32L32,2ZM23,2L2,2L2,18L23,18L23,2ZM12.5,3.455C16.087,3.455 19,6.387 19,10C19,13.613 16.087,16.545 12.5,16.545C8.913,16.545 6,13.613 6,10C6,6.387 8.913,3.455 12.5,3.455ZM16.5,10.114L10.5,13.728L10.5,6.5L16.5,10.114Z"/>
</svg>
