<?xml version="1.0" encoding="UTF-8" standalone="no"?>
<!DOCTYPE svg PUBLIC "-//W3C//DTD SVG 1.1//EN" "http://www.w3.org/Graphics/SVG/1.1/DTD/svg11.dtd">
<svg width="100%" height="100%" viewBox="0 0 36 36" version="1.1" xmlns="http://www.w3.org/2000/svg" xmlns:xlink="http://www.w3.org/1999/xlink" xml:space="preserve" xmlns:serif="http://www.serif.com/" style="fill-rule:evenodd;clip-rule:evenodd;stroke-linejoin:round;stroke-miterlimit:1.41421;">
    <g transform="matrix(0.610169,0,0,0.610169,-379.525,-13.4237)">
        <path d="M681,28.466C681,24.895 678.105,22 674.534,22L628.466,22C624.895,22 622,24.895 622,28.466L622,74.534C622,78.105 624.895,81 628.466,81L674.534,81C678.105,81 681,78.105 681,74.534L681,28.466ZM640.514,74.444C636.648,74.444 633.472,70.935 633.472,67.069L633.472,38.069C633.472,34.203 637.134,31 641,31C644.866,31 648.222,34.523 648.222,38.389L648.222,41.667L661.222,41.667C665.088,41.667 667.889,44.356 667.889,48.222C667.889,52.088 665.199,54.778 661.333,54.778L648.333,54.778L648.222,59.694L661.222,59.694C665.088,59.694 668,63.134 668,67C668,70.866 664.38,74.444 660.514,74.444L640.514,74.444Z"/>
    </g>
</svg>
