<?xml version="1.0" encoding="UTF-8" standalone="no"?>
<!DOCTYPE svg PUBLIC "-//W3C//DTD SVG 1.1//EN" "http://www.w3.org/Graphics/SVG/1.1/DTD/svg11.dtd">
<svg width="100%" height="100%" viewBox="0 0 27 31" version="1.1" xmlns="http://www.w3.org/2000/svg" xmlns:xlink="http://www.w3.org/1999/xlink" xml:space="preserve" xmlns:serif="http://www.serif.com/" style="fill-rule:evenodd;clip-rule:evenodd;stroke-linecap:round;stroke-linejoin:round;stroke-miterlimit:1.41421;">
    <g id="repeat" transform="matrix(1,0,0,1,-132.5,-2)">
        <g transform="matrix(1,0,0,1,132.5,2)">
            <path d="M7.364,6.48C9.179,5.515 11.255,4.967 13.461,4.967C20.569,4.967 26.331,10.651 26.331,17.664C26.331,24.676 20.569,30.36 13.461,30.36C8.436,30.36 4.083,27.518 1.964,23.375L1.973,23.34L3.716,22.554C5.531,26.101 9.257,28.534 13.56,28.534C19.645,28.534 24.579,23.667 24.579,17.664C24.579,11.66 19.645,6.793 13.56,6.793C11.624,6.793 9.804,7.286 8.223,8.151L12.5,12L0,12L6.5,0L7.364,6.48Z" style="stroke:black;stroke-width:0.07px;"/>
        </g>
        <g transform="matrix(1.10748,0,0,1.05518,-14.2059,-1.08359)">
            <g>
                <path d="M132.929,20.884L133.826,20.764C133.929,21.273 134.104,21.639 134.352,21.864C134.6,22.088 134.901,22.2 135.257,22.2C135.679,22.2 136.035,22.054 136.326,21.762C136.617,21.469 136.762,21.107 136.762,20.675C136.762,20.263 136.628,19.923 136.359,19.655C136.089,19.388 135.747,19.254 135.332,19.254C135.162,19.254 134.951,19.287 134.699,19.354L134.798,18.566C134.858,18.573 134.906,18.576 134.943,18.576C135.325,18.576 135.669,18.476 135.975,18.277C136.281,18.077 136.433,17.77 136.433,17.355C136.433,17.025 136.322,16.753 136.099,16.537C135.877,16.321 135.589,16.213 135.237,16.213C134.888,16.213 134.597,16.323 134.364,16.542C134.132,16.761 133.982,17.09 133.916,17.529L133.018,17.369C133.128,16.768 133.377,16.302 133.766,15.971C134.155,15.64 134.639,15.475 135.217,15.475C135.616,15.475 135.983,15.561 136.319,15.732C136.654,15.903 136.911,16.136 137.089,16.432C137.267,16.728 137.356,17.042 137.356,17.374C137.356,17.69 137.271,17.978 137.101,18.237C136.932,18.496 136.681,18.702 136.349,18.855C136.781,18.955 137.116,19.162 137.356,19.476C137.595,19.79 137.715,20.183 137.715,20.655C137.715,21.293 137.482,21.834 137.017,22.277C136.551,22.721 135.963,22.943 135.252,22.943C134.61,22.943 134.078,22.752 133.654,22.37C133.23,21.988 132.989,21.492 132.929,20.884Z" style="fill-rule:nonzero;"/>
                <path d="M138.602,19.209C138.602,18.345 138.691,17.649 138.869,17.123C139.047,16.596 139.311,16.19 139.661,15.904C140.012,15.618 140.453,15.475 140.985,15.475C141.377,15.475 141.721,15.554 142.017,15.712C142.313,15.87 142.557,16.097 142.75,16.395C142.943,16.692 143.094,17.055 143.203,17.482C143.313,17.909 143.368,18.485 143.368,19.209C143.368,20.067 143.28,20.759 143.104,21.285C142.928,21.812 142.664,22.219 142.314,22.507C141.963,22.794 141.52,22.938 140.985,22.938C140.28,22.938 139.727,22.685 139.325,22.18C138.843,21.572 138.602,20.582 138.602,19.209ZM139.524,19.209C139.524,20.409 139.665,21.207 139.946,21.604C140.226,22.002 140.573,22.2 140.985,22.2C141.397,22.2 141.744,22.001 142.024,21.602C142.305,21.203 142.446,20.406 142.446,19.209C142.446,18.006 142.305,17.207 142.024,16.811C141.744,16.416 141.394,16.218 140.975,16.218C140.563,16.218 140.234,16.392 139.988,16.741C139.679,17.187 139.524,18.009 139.524,19.209Z" style="fill-rule:nonzero;"/>
                <path d="M144.171,21.233L145.058,21.093C145.108,21.449 145.247,21.722 145.474,21.911C145.702,22.101 146.02,22.195 146.429,22.195C146.841,22.195 147.147,22.111 147.346,21.943C147.546,21.776 147.645,21.579 147.645,21.353C147.645,21.15 147.557,20.99 147.381,20.874C147.258,20.794 146.952,20.693 146.464,20.57C145.806,20.404 145.35,20.26 145.095,20.139C144.841,20.017 144.648,19.85 144.517,19.635C144.386,19.421 144.32,19.184 144.32,18.925C144.32,18.689 144.374,18.47 144.482,18.269C144.59,18.068 144.737,17.901 144.923,17.768C145.063,17.665 145.253,17.578 145.494,17.507C145.735,17.435 145.993,17.399 146.269,17.399C146.685,17.399 147.05,17.459 147.364,17.579C147.678,17.699 147.91,17.861 148.059,18.065C148.209,18.269 148.312,18.543 148.368,18.885L147.491,19.005C147.451,18.732 147.335,18.519 147.144,18.367C146.953,18.214 146.683,18.137 146.334,18.137C145.922,18.137 145.628,18.205 145.452,18.342C145.276,18.478 145.188,18.637 145.188,18.82C145.188,18.937 145.224,19.041 145.297,19.134C145.37,19.231 145.485,19.31 145.641,19.374C145.731,19.407 145.995,19.483 146.434,19.603C147.069,19.772 147.512,19.911 147.762,20.019C148.013,20.127 148.21,20.284 148.353,20.49C148.496,20.696 148.568,20.952 148.568,21.258C148.568,21.557 148.48,21.839 148.306,22.103C148.131,22.367 147.88,22.572 147.551,22.716C147.222,22.861 146.849,22.933 146.434,22.933C145.746,22.933 145.222,22.79 144.861,22.504C144.5,22.218 144.27,21.795 144.171,21.233Z" style="fill-rule:nonzero;"/>
            </g>
        </g>
    </g>
</svg>
