<?xml version="1.0" encoding="UTF-8" standalone="no"?>
<!DOCTYPE svg PUBLIC "-//W3C//DTD SVG 1.1//EN" "http://www.w3.org/Graphics/SVG/1.1/DTD/svg11.dtd">
<svg width="100%" height="100%" viewBox="0 0 39 32" version="1.1" xmlns="http://www.w3.org/2000/svg" xmlns:xlink="http://www.w3.org/1999/xlink" xml:space="preserve" xmlns:serif="http://www.serif.com/" style="fill-rule:evenodd;clip-rule:evenodd;stroke-linejoin:round;stroke-miterlimit:1.41421;">
    <path d="M16.741,26.183C12.023,25.971 6.017,25.452 6.017,25.452C2.97,25.452 0.499,23.423 0.499,20.921C0.499,20.921 -0.001,15.526 -0.001,12.932C-0.001,10.59 0.499,5.352 0.499,5.352C0.499,2.85 2.97,0.821 6.017,0.821C6.017,0.821 15.005,0.001 19.499,0.001C21.254,0.001 23.696,0.125 26.019,0.278C29.643,0.516 32.981,0.821 32.981,0.821C36.028,0.821 38.499,2.85 38.499,5.352C38.499,5.352 39,10.541 39,13.136C39,15.732 38.499,20.921 38.499,20.921C38.499,23.423 36.028,25.452 32.981,25.452C32.981,25.452 26.774,26.041 22.24,26.221L19.5,31.465L16.741,26.183ZM34.346,20.087L4.021,20.087L4.021,23.325L34.346,23.325L34.346,20.087ZM34.346,15.805L4.021,15.805L4.021,19.044L34.346,19.044L34.346,15.805ZM34.346,11.523L4.021,11.523L4.021,14.762L34.346,14.762L34.346,11.523ZM34.346,7.241L4.021,7.241L4.021,10.48L34.346,10.48L34.346,7.241ZM34.346,2.959L4.021,2.959L4.021,6.198L34.346,6.198L34.346,2.959Z" style="fill:rgb(1,0,0);"/>
</svg>
