<?xml version="1.0" encoding="UTF-8" standalone="no"?>
<!DOCTYPE svg PUBLIC "-//W3C//DTD SVG 1.1//EN" "http://www.w3.org/Graphics/SVG/1.1/DTD/svg11.dtd">
<svg width="100%" height="100%" viewBox="0 0 521 419" version="1.1" xmlns="http://www.w3.org/2000/svg" xmlns:xlink="http://www.w3.org/1999/xlink" xml:space="preserve" xmlns:serif="http://www.serif.com/" style="fill-rule:evenodd;clip-rule:evenodd;stroke-linejoin:round;stroke-miterlimit:1.41421;">
    <g transform="matrix(5.20833,0,0,5.20833,0,0)">
        <g id="tabs" transform="matrix(2.81975,0,0,2.81975,-570.346,-248.894)">
            <g transform="matrix(1.03226,0,0,1,-7.6129,0)">
                <path d="M213.309,89L213.356,89.001L213.403,89.003L213.45,89.005L213.496,89.007L213.543,89.011L213.589,89.015L213.635,89.019L213.681,89.024L213.727,89.03L213.772,89.036L213.818,89.043L213.863,89.051L213.908,89.059L213.953,89.068L213.997,89.077L214.041,89.087L214.086,89.097L214.129,89.108L214.173,89.12L214.216,89.132L214.259,89.145L214.302,89.158L214.345,89.172L214.387,89.187L214.429,89.202L214.471,89.218L214.512,89.234L214.553,89.251L214.594,89.268L214.634,89.286L214.675,89.305L214.714,89.324L214.754,89.343L214.793,89.364L214.832,89.384L214.871,89.405L214.909,89.427L214.947,89.449L214.984,89.472L215.021,89.495L215.058,89.519L215.094,89.543L215.13,89.568L215.166,89.593L215.201,89.619L215.235,89.645L215.27,89.671L215.304,89.698L215.337,89.726L215.371,89.754L215.403,89.782L215.436,89.811L215.468,89.84L215.499,89.869L215.53,89.899L215.561,89.93L215.591,89.961L215.621,89.992L215.65,90.023L215.679,90.055L215.707,90.087L215.735,90.12L215.763,90.153L215.79,90.186L215.817,90.22L215.843,90.254L215.869,90.288L215.894,90.323L215.919,90.358L215.944,90.393L215.968,90.428L215.992,90.464L216.015,90.5L216.037,90.537L216.06,90.573L216.082,90.61L216.103,90.647L216.124,90.685L216.145,90.722L216.165,90.76L216.184,90.798L216.203,90.837L216.222,90.875L216.241,90.914L216.258,90.953L216.276,90.992L216.293,91.032L216.309,91.072L216.326,91.111L216.341,91.152L216.357,91.192L216.371,91.232L216.386,91.273L216.4,91.314L216.413,91.355L216.426,91.396L216.439,91.437L216.451,91.479L216.463,91.52L216.475,91.562L216.486,91.604L216.496,91.646L216.506,91.689L216.516,91.731L216.525,91.774L216.534,91.816L216.543,91.859L216.551,91.902L216.558,91.945L216.566,91.988L216.572,92.032L216.579,92.075L216.585,92.119L216.59,92.162L216.595,92.206L216.6,92.25L216.605,92.294L216.608,92.338L216.612,92.382L216.615,92.426L216.618,92.471L216.62,92.515L216.622,92.56L216.623,92.604L216.624,92.649L216.625,92.694L216.625,92.736L216.625,94L233.815,94L233.852,94L233.892,94.001L233.932,94.002L233.972,94.004L234.012,94.006L234.052,94.009L234.091,94.012L234.131,94.016L234.17,94.02L234.209,94.025L234.248,94.03L234.287,94.036L234.326,94.042L234.365,94.049L234.403,94.056L234.442,94.064L234.48,94.072L234.518,94.08L234.556,94.089L234.593,94.099L234.631,94.108L234.668,94.119L234.705,94.13L234.742,94.141L234.779,94.153L234.816,94.165L234.852,94.177L234.888,94.19L234.924,94.204L234.96,94.218L234.996,94.232L235.031,94.247L235.066,94.262L235.101,94.277L235.136,94.293L235.17,94.31L235.205,94.326L235.239,94.344L235.273,94.361L235.306,94.379L235.34,94.397L235.373,94.416L235.405,94.435L235.438,94.455L235.47,94.475L235.503,94.495L235.534,94.516L235.566,94.537L235.597,94.558L235.628,94.58L235.659,94.602L235.69,94.625L235.72,94.648L235.75,94.671L235.779,94.695L235.809,94.719L235.838,94.743L235.867,94.767L235.895,94.792L235.923,94.818L235.951,94.843L235.979,94.869L236.006,94.896L236.033,94.923L236.06,94.95L236.086,94.977L236.112,95.005L236.138,95.033L236.164,95.061L236.189,95.089L236.213,95.118L236.238,95.148L236.262,95.177L236.286,95.207L236.309,95.237L236.332,95.268L236.355,95.298L236.377,95.33L236.399,95.361L236.421,95.393L236.442,95.424L236.463,95.457L236.484,95.489L236.504,95.522L236.524,95.555L236.543,95.588L236.562,95.622L236.581,95.656L236.599,95.69L236.617,95.724L236.635,95.759L236.652,95.794L236.668,95.829L236.685,95.864L236.7,95.9L236.716,95.936L236.731,95.972L236.746,96.009L236.76,96.045L236.773,96.082L236.787,96.119L236.8,96.156L236.812,96.194L236.824,96.231L236.836,96.269L236.847,96.308L236.857,96.346L236.867,96.384L236.877,96.423L236.886,96.462L236.895,96.501L236.903,96.54L236.911,96.58L236.919,96.619L236.925,96.659L236.932,96.699L236.938,96.739L236.943,96.779L236.948,96.819L236.952,96.86L236.956,96.9L236.959,96.941L236.962,96.982L236.965,97.023L236.966,97.064L236.968,97.105L236.969,97.146L236.969,97.185L236.969,110.148L236.968,110.221L236.967,110.297L236.964,110.372L236.961,110.447L236.957,110.522L236.952,110.597L236.945,110.672L236.938,110.746L236.93,110.82L236.922,110.894L236.912,110.967L236.901,111.04L236.889,111.113L236.877,111.186L236.863,111.258L236.849,111.33L236.834,111.402L236.818,111.473L236.801,111.544L236.783,111.615L236.765,111.686L236.745,111.756L236.725,111.825L236.704,111.895L236.682,111.963L236.659,112.032L236.636,112.1L236.612,112.168L236.586,112.235L236.561,112.302L236.534,112.369L236.506,112.435L236.478,112.501L236.449,112.566L236.419,112.631L236.389,112.695L236.357,112.759L236.325,112.823L236.293,112.886L236.259,112.948L236.225,113.01L236.19,113.072L236.154,113.133L236.118,113.194L236.081,113.254L236.043,113.314L236.005,113.373L235.965,113.432L235.926,113.49L235.885,113.547L235.844,113.604L235.802,113.661L235.76,113.717L235.717,113.773L235.673,113.827L235.629,113.882L235.584,113.936L235.538,113.989L235.492,114.042L235.445,114.094L235.398,114.145L235.35,114.196L235.301,114.247L235.252,114.296L235.202,114.345L235.152,114.394L235.101,114.442L235.05,114.489L234.998,114.536L234.945,114.582L234.892,114.628L234.838,114.672L234.784,114.717L234.729,114.76L234.674,114.803L234.618,114.845L234.562,114.887L234.505,114.928L234.448,114.968L234.39,115.008L234.332,115.046L234.273,115.085L234.214,115.122L234.154,115.159L234.094,115.195L234.033,115.23L233.972,115.265L233.91,115.299L233.848,115.332L233.786,115.365L233.723,115.396L233.66,115.427L233.596,115.458L233.532,115.487L233.467,115.516L233.402,115.544L233.337,115.571L233.271,115.597L233.205,115.623L233.138,115.648L233.071,115.672L233.004,115.695L232.936,115.718L232.868,115.739L232.8,115.76L232.731,115.78L232.662,115.799L232.593,115.817L232.523,115.835L232.453,115.852L232.383,115.867L232.312,115.882L232.241,115.896L232.17,115.91L232.098,115.922L232.026,115.933L231.954,115.944L231.882,115.954L231.809,115.962L231.736,115.97L231.663,115.977L231.59,115.983L231.516,115.988L231.443,115.992L231.369,115.996L231.294,115.998L231.22,116L231.148,116L209.852,116L209.78,116L209.706,115.998L209.631,115.996L209.557,115.992L209.484,115.988L209.41,115.983L209.337,115.977L209.264,115.97L209.191,115.962L209.118,115.954L209.046,115.944L208.974,115.933L208.902,115.922L208.83,115.91L208.759,115.896L208.688,115.882L208.617,115.867L208.547,115.852L208.477,115.835L208.407,115.817L208.338,115.799L208.269,115.78L208.2,115.76L208.132,115.739L208.064,115.718L207.996,115.695L207.929,115.672L207.862,115.648L207.795,115.623L207.729,115.597L207.663,115.571L207.598,115.544L207.533,115.516L207.468,115.487L207.404,115.458L207.34,115.427L207.277,115.396L207.214,115.365L207.152,115.332L207.09,115.299L207.028,115.265L206.967,115.23L206.906,115.195L206.846,115.159L206.786,115.122L206.727,115.085L206.668,115.046L206.61,115.008L206.552,114.968L206.495,114.928L206.438,114.887L206.382,114.845L206.326,114.803L206.271,114.76L206.216,114.717L206.162,114.672L206.108,114.628L206.055,114.582L206.002,114.536L205.95,114.489L205.899,114.442L205.848,114.394L205.798,114.345L205.748,114.296L205.699,114.247L205.65,114.196L205.602,114.145L205.555,114.094L205.508,114.042L205.462,113.989L205.416,113.936L205.371,113.882L205.327,113.827L205.283,113.772L205.24,113.717L205.198,113.661L205.156,113.604L205.115,113.547L205.074,113.49L205.034,113.432L204.995,113.373L204.957,113.314L204.919,113.254L204.882,113.194L204.846,113.133L204.81,113.072L204.775,113.011L204.741,112.948L204.707,112.886L204.675,112.823L204.643,112.759L204.611,112.695L204.581,112.631L204.551,112.566L204.522,112.501L204.494,112.435L204.466,112.369L204.439,112.302L204.414,112.235L204.388,112.168L204.364,112.1L204.341,112.032L204.318,111.964L204.296,111.895L204.275,111.825L204.255,111.756L204.235,111.686L204.217,111.615L204.199,111.544L204.182,111.473L204.166,111.402L204.151,111.33L204.137,111.258L204.123,111.186L204.111,111.113L204.099,111.04L204.088,110.967L204.078,110.894L204.07,110.82L204.062,110.746L204.055,110.672L204.048,110.597L204.043,110.522L204.039,110.447L204.036,110.372L204.033,110.297L204.032,110.221L204.031,110.148L204.031,92.735L204.032,92.69L204.032,92.642L204.034,92.593L204.036,92.545L204.039,92.497L204.042,92.449L204.046,92.402L204.051,92.354L204.056,92.307L204.061,92.259L204.068,92.212L204.075,92.166L204.082,92.119L204.09,92.072L204.099,92.026L204.108,91.98L204.117,91.934L204.128,91.888L204.139,91.843L204.15,91.797L204.162,91.752L204.174,91.707L204.187,91.663L204.201,91.618L204.215,91.574L204.229,91.53L204.244,91.487L204.26,91.443L204.276,91.4L204.293,91.357L204.31,91.315L204.327,91.272L204.345,91.23L204.364,91.189L204.383,91.147L204.403,91.106L204.423,91.065L204.443,91.024L204.464,90.984L204.486,90.944L204.507,90.904L204.53,90.865L204.553,90.826L204.576,90.787L204.599,90.749L204.624,90.711L204.648,90.673L204.673,90.635L204.698,90.598L204.724,90.561L204.751,90.525L204.777,90.489L204.804,90.453L204.832,90.418L204.86,90.383L204.888,90.348L204.917,90.314L204.946,90.28L204.975,90.246L205.005,90.213L205.035,90.18L205.066,90.148L205.097,90.116L205.128,90.084L205.16,90.052L205.192,90.022L205.224,89.991L205.257,89.961L205.29,89.931L205.324,89.902L205.357,89.873L205.392,89.844L205.426,89.816L205.461,89.788L205.496,89.761L205.532,89.734L205.567,89.708L205.604,89.682L205.64,89.656L205.677,89.631L205.714,89.606L205.751,89.582L205.789,89.558L205.827,89.535L205.865,89.512L205.904,89.489L205.943,89.467L205.982,89.446L206.021,89.424L206.061,89.404L206.101,89.384L206.141,89.364L206.182,89.345L206.223,89.326L206.264,89.308L206.305,89.29L206.347,89.273L206.389,89.256L206.431,89.239L206.473,89.224L206.516,89.208L206.558,89.194L206.601,89.179L206.645,89.166L206.688,89.152L206.732,89.14L206.776,89.128L206.82,89.116L206.864,89.105L206.909,89.094L206.953,89.084L206.998,89.075L207.043,89.066L207.088,89.057L207.134,89.05L207.179,89.042L207.225,89.036L207.271,89.029L207.317,89.024L207.364,89.019L207.41,89.015L207.456,89.011L207.503,89.007L207.55,89.005L207.597,89.003L207.644,89.001L207.691,89L207.735,89L213.265,89L213.309,89ZM207.741,91L207.715,91L207.691,91.001L207.668,91.001L207.645,91.002L207.622,91.004L207.599,91.005L207.576,91.007L207.553,91.009L207.531,91.012L207.508,91.015L207.486,91.018L207.463,91.021L207.441,91.024L207.419,91.028L207.397,91.032L207.375,91.037L207.353,91.041L207.331,91.046L207.31,91.051L207.288,91.057L207.267,91.062L207.246,91.068L207.225,91.074L207.204,91.081L207.183,91.087L207.162,91.094L207.141,91.101L207.121,91.109L207.1,91.116L207.08,91.124L207.06,91.132L207.04,91.141L207.02,91.149L207,91.158L206.98,91.167L206.961,91.176L206.942,91.186L206.922,91.195L206.903,91.205L206.884,91.215L206.865,91.226L206.847,91.236L206.828,91.247L206.81,91.258L206.792,91.269L206.774,91.281L206.756,91.293L206.738,91.304L206.72,91.316L206.703,91.329L206.685,91.341L206.668,91.354L206.651,91.367L206.635,91.38L206.618,91.393L206.601,91.406L206.585,91.42L206.569,91.434L206.553,91.448L206.537,91.462L206.522,91.476L206.506,91.491L206.491,91.505L206.476,91.52L206.461,91.535L206.447,91.551L206.432,91.566L206.418,91.581L206.404,91.597L206.39,91.613L206.376,91.629L206.363,91.645L206.349,91.661L206.336,91.678L206.324,91.694L206.311,91.711L206.298,91.728L206.286,91.745L206.274,91.762L206.262,91.779L206.251,91.797L206.239,91.814L206.228,91.832L206.217,91.85L206.206,91.868L206.196,91.886L206.186,91.904L206.175,91.922L206.166,91.941L206.156,91.959L206.147,91.978L206.137,91.997L206.128,92.015L206.12,92.034L206.111,92.053L206.103,92.073L206.095,92.092L206.087,92.111L206.08,92.131L206.072,92.15L206.065,92.17L206.058,92.19L206.052,92.21L206.046,92.23L206.039,92.25L206.034,92.27L206.028,92.29L206.023,92.311L206.017,92.331L206.013,92.352L206.008,92.372L206.003,92.393L205.999,92.414L205.995,92.435L205.992,92.456L205.988,92.477L205.985,92.498L205.983,92.52L205.98,92.541L205.978,92.563L205.976,92.584L205.974,92.606L205.972,92.628L205.971,92.65L205.97,92.672L205.969,92.694L205.969,92.716L205.969,92.742L205.969,110.142L205.969,110.195L205.97,110.244L205.972,110.294L205.974,110.343L205.977,110.392L205.98,110.44L205.984,110.489L205.989,110.537L205.994,110.585L206,110.633L206.006,110.681L206.013,110.729L206.02,110.776L206.029,110.823L206.037,110.87L206.046,110.917L206.056,110.963L206.067,111.01L206.078,111.056L206.089,111.102L206.101,111.147L206.114,111.193L206.127,111.238L206.141,111.283L206.155,111.328L206.17,111.372L206.185,111.417L206.201,111.461L206.217,111.505L206.234,111.548L206.251,111.592L206.269,111.635L206.288,111.678L206.307,111.72L206.326,111.763L206.346,111.805L206.367,111.846L206.388,111.888L206.409,111.929L206.431,111.97L206.453,112.011L206.476,112.051L206.5,112.091L206.524,112.131L206.548,112.171L206.573,112.21L206.598,112.249L206.624,112.288L206.65,112.326L206.677,112.364L206.704,112.401L206.731,112.439L206.759,112.476L206.788,112.512L206.817,112.549L206.846,112.585L206.876,112.62L206.906,112.656L206.937,112.691L206.968,112.725L206.999,112.759L207.031,112.793L207.063,112.827L207.096,112.86L207.129,112.893L207.163,112.925L207.196,112.957L207.231,112.988L207.265,113.019L207.3,113.05L207.336,113.08L207.372,113.11L207.408,113.14L207.444,113.169L207.481,113.197L207.518,113.226L207.556,113.253L207.594,113.281L207.632,113.308L207.671,113.334L207.71,113.36L207.749,113.386L207.789,113.411L207.829,113.435L207.869,113.459L207.91,113.483L207.951,113.506L207.992,113.529L208.033,113.551L208.075,113.573L208.117,113.594L208.16,113.615L208.203,113.635L208.246,113.655L208.289,113.674L208.332,113.693L208.376,113.711L208.42,113.729L208.465,113.746L208.509,113.763L208.554,113.779L208.6,113.795L208.645,113.81L208.691,113.824L208.737,113.838L208.783,113.852L208.829,113.865L208.876,113.877L208.923,113.889L208.97,113.9L209.017,113.91L209.065,113.92L209.113,113.93L209.161,113.939L209.209,113.947L209.257,113.955L209.306,113.962L209.355,113.968L209.404,113.974L209.453,113.98L209.503,113.984L209.552,113.989L209.602,113.992L209.652,113.995L209.703,113.997L209.753,113.999L209.804,114L209.858,114L231.142,114L231.196,114L231.247,113.999L231.297,113.997L231.348,113.995L231.398,113.992L231.448,113.989L231.497,113.984L231.547,113.98L231.596,113.974L231.645,113.968L231.694,113.962L231.743,113.955L231.791,113.947L231.839,113.939L231.887,113.93L231.935,113.92L231.983,113.91L232.03,113.9L232.077,113.889L232.124,113.877L232.171,113.865L232.217,113.852L232.263,113.838L232.309,113.824L232.355,113.81L232.4,113.795L232.446,113.779L232.491,113.763L232.535,113.746L232.58,113.729L232.624,113.711L232.668,113.693L232.711,113.674L232.754,113.655L232.797,113.635L232.84,113.615L232.883,113.594L232.925,113.573L232.967,113.551L233.008,113.529L233.049,113.506L233.09,113.483L233.131,113.459L233.171,113.435L233.211,113.411L233.251,113.386L233.29,113.36L233.329,113.334L233.368,113.308L233.406,113.281L233.444,113.253L233.482,113.226L233.519,113.197L233.556,113.169L233.592,113.14L233.628,113.11L233.664,113.08L233.7,113.05L233.735,113.019L233.769,112.988L233.804,112.957L233.837,112.925L233.871,112.893L233.904,112.86L233.937,112.827L233.969,112.793L234.001,112.759L234.032,112.725L234.063,112.691L234.094,112.656L234.124,112.62L234.154,112.585L234.183,112.549L234.212,112.512L234.241,112.476L234.269,112.439L234.296,112.401L234.323,112.364L234.35,112.326L234.376,112.288L234.402,112.249L234.427,112.21L234.452,112.171L234.476,112.131L234.5,112.091L234.524,112.051L234.547,112.011L234.569,111.97L234.591,111.929L234.612,111.888L234.633,111.846L234.654,111.805L234.674,111.763L234.693,111.72L234.712,111.678L234.731,111.635L234.749,111.592L234.766,111.548L234.783,111.505L234.799,111.461L234.815,111.417L234.83,111.372L234.845,111.328L234.859,111.283L234.873,111.238L234.886,111.193L234.899,111.147L234.911,111.102L234.922,111.056L234.933,111.01L234.944,110.963L234.954,110.917L234.963,110.87L234.971,110.823L234.98,110.776L234.987,110.729L234.994,110.681L235,110.633L235.006,110.585L235.011,110.537L235.016,110.489L235.02,110.44L235.023,110.392L235.026,110.343L235.028,110.294L235.03,110.244L235.031,110.195L235.031,110.142L235.031,97.191L235.031,97.173L235.031,97.157L235.03,97.142L235.03,97.127L235.029,97.113L235.028,97.098L235.027,97.083L235.025,97.068L235.024,97.054L235.022,97.039L235.02,97.025L235.018,97.01L235.016,96.996L235.013,96.982L235.01,96.968L235.008,96.953L235.005,96.939L235.002,96.926L234.998,96.912L234.995,96.898L234.991,96.884L234.987,96.87L234.983,96.857L234.979,96.843L234.975,96.829L234.97,96.816L234.966,96.802L234.961,96.789L234.956,96.776L234.951,96.763L234.946,96.749L234.94,96.736L234.935,96.723L234.929,96.71L234.923,96.697L234.917,96.685L234.911,96.672L234.904,96.659L234.898,96.647L234.891,96.634L234.884,96.622L234.877,96.609L234.87,96.597L234.863,96.585L234.855,96.573L234.847,96.56L234.84,96.549L234.832,96.537L234.824,96.525L234.815,96.513L234.807,96.501L234.799,96.49L234.79,96.478L234.781,96.467L234.772,96.456L234.763,96.445L234.754,96.434L234.744,96.423L234.735,96.412L234.725,96.401L234.715,96.39L234.705,96.38L234.695,96.369L234.685,96.359L234.675,96.349L234.664,96.339L234.654,96.329L234.643,96.319L234.632,96.309L234.621,96.3L234.61,96.29L234.599,96.281L234.588,96.271L234.576,96.262L234.565,96.253L234.553,96.244L234.541,96.236L234.529,96.227L234.517,96.219L234.505,96.21L234.493,96.202L234.48,96.194L234.468,96.186L234.455,96.179L234.443,96.171L234.43,96.163L234.417,96.156L234.404,96.149L234.391,96.142L234.378,96.135L234.364,96.128L234.351,96.122L234.337,96.115L234.324,96.109L234.31,96.103L234.296,96.097L234.283,96.092L234.269,96.086L234.255,96.081L234.241,96.075L234.226,96.07L234.212,96.065L234.198,96.06L234.183,96.056L234.169,96.051L234.154,96.047L234.139,96.043L234.125,96.039L234.11,96.035L234.095,96.032L234.08,96.029L234.065,96.025L234.05,96.022L234.034,96.02L234.019,96.017L234.004,96.014L233.988,96.012L233.972,96.01L233.957,96.008L233.941,96.007L233.925,96.005L233.909,96.004L233.893,96.003L233.877,96.002L233.861,96.001L233.845,96L233.829,96L233.809,96L214.687,96L214.687,92.741L214.687,92.712L214.687,92.687L214.686,92.661L214.686,92.635L214.685,92.61L214.683,92.585L214.682,92.56L214.68,92.535L214.678,92.51L214.676,92.485L214.674,92.461L214.671,92.437L214.668,92.413L214.665,92.389L214.662,92.365L214.658,92.341L214.655,92.318L214.651,92.295L214.647,92.272L214.642,92.249L214.638,92.226L214.633,92.204L214.628,92.182L214.623,92.16L214.618,92.138L214.613,92.116L214.607,92.094L214.601,92.073L214.595,92.052L214.589,92.031L214.583,92.011L214.576,91.99L214.57,91.97L214.563,91.95L214.556,91.93L214.548,91.911L214.541,91.891L214.534,91.872L214.526,91.853L214.518,91.834L214.51,91.816L214.502,91.797L214.494,91.779L214.485,91.762L214.477,91.744L214.468,91.727L214.459,91.709L214.45,91.692L214.441,91.676L214.432,91.659L214.422,91.643L214.413,91.627L214.403,91.611L214.393,91.595L214.384,91.58L214.374,91.565L214.363,91.55L214.353,91.535L214.343,91.52L214.332,91.506L214.322,91.492L214.311,91.478L214.3,91.465L214.289,91.451L214.278,91.438L214.267,91.425L214.256,91.412L214.244,91.4L214.233,91.387L214.221,91.375L214.209,91.363L214.197,91.351L214.185,91.34L214.173,91.328L214.161,91.317L214.149,91.306L214.136,91.295L214.124,91.285L214.111,91.274L214.098,91.264L214.085,91.254L214.072,91.244L214.059,91.235L214.045,91.225L214.032,91.216L214.018,91.207L214.004,91.198L213.99,91.189L213.976,91.18L213.962,91.172L213.948,91.164L213.933,91.156L213.918,91.148L213.903,91.14L213.888,91.133L213.873,91.126L213.858,91.118L213.842,91.112L213.826,91.105L213.81,91.098L213.794,91.092L213.777,91.086L213.761,91.08L213.744,91.074L213.727,91.068L213.709,91.063L213.692,91.058L213.674,91.053L213.656,91.048L213.638,91.043L213.619,91.039L213.6,91.034L213.581,91.03L213.562,91.027L213.542,91.023L213.522,91.02L213.502,91.017L213.482,91.014L213.461,91.011L213.44,91.009L213.419,91.007L213.397,91.005L213.376,91.004L213.353,91.002L213.331,91.001L213.308,91.001L213.285,91L213.259,91L207.741,91Z"/>
            </g>
            <g transform="matrix(1,0,0,1,-0.75,0)">
                <path d="M222.796,90L222.843,90.001L222.889,90.003L222.936,90.005L222.982,90.009L223.029,90.013L223.075,90.017L223.122,90.023L223.169,90.03L223.215,90.037L223.262,90.046L223.31,90.056L223.357,90.066L223.404,90.078L223.451,90.091L223.499,90.106L223.546,90.121L223.593,90.138L223.641,90.156L223.688,90.176L223.735,90.198L223.782,90.22L223.828,90.245L223.874,90.271L223.92,90.298L223.965,90.327L224.009,90.358L224.052,90.39L224.095,90.424L224.136,90.459L224.177,90.496L224.216,90.534L224.254,90.573L224.291,90.614L224.326,90.655L224.36,90.698L224.392,90.741L224.423,90.785L224.452,90.83L224.479,90.876L224.505,90.922L224.53,90.968L224.552,91.015L224.574,91.062L224.594,91.109L224.612,91.157L224.629,91.204L224.644,91.251L224.659,91.299L224.672,91.346L224.684,91.393L224.694,91.44L224.704,91.488L224.713,91.535L224.72,91.581L224.727,91.628L224.733,91.675L224.737,91.721L224.741,91.768L224.745,91.814L224.747,91.861L224.749,91.907L224.75,91.954L224.757,92.993L222.757,93.007L222.75,92L222.746,92L217.75,92L217.75,90L222.754,90L222.796,90Z"/>
            </g>
            <g transform="matrix(1,0,0,1,7.25,0)">
                <path d="M222.796,90L222.843,90.001L222.889,90.003L222.936,90.005L222.982,90.009L223.029,90.013L223.075,90.017L223.122,90.023L223.169,90.03L223.215,90.037L223.262,90.046L223.31,90.056L223.357,90.066L223.404,90.078L223.451,90.091L223.499,90.106L223.546,90.121L223.593,90.138L223.641,90.156L223.688,90.176L223.735,90.198L223.782,90.22L223.828,90.245L223.874,90.271L223.92,90.298L223.965,90.327L224.009,90.358L224.052,90.39L224.095,90.424L224.136,90.459L224.177,90.496L224.216,90.534L224.254,90.573L224.291,90.614L224.326,90.655L224.36,90.698L224.392,90.741L224.423,90.785L224.452,90.83L224.479,90.876L224.505,90.922L224.53,90.968L224.552,91.015L224.574,91.062L224.594,91.109L224.612,91.157L224.629,91.204L224.644,91.251L224.659,91.299L224.672,91.346L224.684,91.393L224.694,91.44L224.704,91.488L224.713,91.535L224.72,91.581L224.727,91.628L224.733,91.675L224.737,91.721L224.741,91.768L224.745,91.814L224.747,91.861L224.749,91.907L224.75,91.954L224.757,92.993L222.757,93.007L222.75,92L222.746,92L217.75,92L217.75,90L222.754,90L222.796,90Z"/>
            </g>
        </g>
    </g>
</svg>
