<?xml version="1.0" encoding="UTF-8" standalone="no"?>
<!DOCTYPE svg PUBLIC "-//W3C//DTD SVG 1.1//EN" "http://www.w3.org/Graphics/SVG/1.1/DTD/svg11.dtd">
<svg width="100%" height="100%" viewBox="0 0 38 29" version="1.1" xmlns="http://www.w3.org/2000/svg" xmlns:xlink="http://www.w3.org/1999/xlink" xml:space="preserve" xmlns:serif="http://www.serif.com/" style="fill-rule:evenodd;clip-rule:evenodd;stroke-linejoin:round;stroke-miterlimit:1.41421;">
    <g transform="matrix(1.22222,0,0,0.919282,-443.667,-74.1675)">
        <path d="M368.723,112.223C368.713,112.165 368.715,97.198 368.723,96.997L366.414,97C364.53,97 363,98.581 363,100.529L363,108.697C363,110.645 364.53,112.226 366.414,112.226L368.723,112.223Z"/>
    </g>
    <g transform="matrix(-1.22222,0,0,0.919282,481.662,-74.1675)">
        <path d="M368.723,112.223C368.713,112.165 368.715,97.198 368.723,96.997L366.414,97C364.53,97 363,98.581 363,100.529L363,108.697C363,110.645 364.53,112.226 366.414,112.226L368.723,112.223Z"/>
    </g>
    <g transform="matrix(1,0,0,1,-361,-82)">
        <path d="M365.056,95C365.019,94.669 365,94.333 365,93.992L365,92C364.871,87.27 371.808,82 376.78,82L382.22,82C387.192,82 394.077,87.398 394,92L394,93.992C394,94.333 393.981,94.669 393.944,95L392,95L392,93.22C392,88.132 387.089,84 382,84L377,84C371.911,84 367,88.132 367,93.22L367,95L365.056,95Z"/>
    </g>
</svg>
