<?xml version="1.0" encoding="UTF-8" standalone="no"?>
<!DOCTYPE svg PUBLIC "-//W3C//DTD SVG 1.1//EN" "http://www.w3.org/Graphics/SVG/1.1/DTD/svg11.dtd">
<svg width="100%" height="100%" viewBox="0 0 27 27" version="1.1" xmlns="http://www.w3.org/2000/svg" xmlns:xlink="http://www.w3.org/1999/xlink" xml:space="preserve" xmlns:serif="http://www.serif.com/" style="fill-rule:evenodd;clip-rule:evenodd;stroke-linejoin:round;stroke-miterlimit:1.41421;">
    <path d="M13.098,0C20.328,0 26.197,5.869 26.197,13.098C26.197,20.328 20.328,26.197 13.098,26.197C5.869,26.197 0,20.328 0,13.098C0,5.869 5.869,0 13.098,0ZM12.984,19.048C13.703,19.048 14.315,19.235 14.819,19.61C15.323,19.985 15.574,20.435 15.574,20.96C15.574,21.518 15.323,21.992 14.819,22.383C14.315,22.774 13.703,22.97 12.984,22.97C12.264,22.97 11.653,22.777 11.149,22.391C10.645,22.005 10.393,21.528 10.393,20.96C10.393,20.425 10.645,19.972 11.149,19.602C11.653,19.233 12.264,19.048 12.984,19.048ZM15.064,17.939L10.753,17.939C10.753,16.864 10.729,15.385 11.112,14.346C11.389,13.593 12.13,12.549 12.729,11.831C13.28,11.169 14.274,10.688 14.705,10.034C15.201,9.282 15.811,8.005 15.783,7.159C15.742,5.904 15.044,4.314 12.909,4.285C10.81,4.256 10.034,5.33 10.034,5.722C10.348,5.804 10.671,5.92 10.876,6.081C11.545,6.609 11.471,6.98 11.471,7.519C11.471,7.956 11.094,8.416 10.732,8.708C10.371,8.999 9.504,9.315 8.956,9.315C8.303,9.315 7.445,8.94 6.996,8.53C6.547,8.12 6.323,7.583 6.323,6.918C6.323,5.871 6.941,4.931 8.177,4.097C9.413,3.264 10.97,2.847 12.847,2.847C14.771,2.847 16.36,3.312 17.614,4.241C18.868,5.17 19.495,6.304 19.495,7.642C19.495,8.498 19.279,9.273 18.847,9.965C18.521,10.484 18.179,11.252 16.861,12.19C15.147,13.392 15.099,16.619 15.064,17.939Z"/>
</svg>
