<?xml version="1.0" encoding="UTF-8" standalone="no"?>
<!DOCTYPE svg PUBLIC "-//W3C//DTD SVG 1.1//EN" "http://www.w3.org/Graphics/SVG/1.1/DTD/svg11.dtd">
<svg width="100%" height="100%" viewBox="0 0 17 18" version="1.1" xmlns="http://www.w3.org/2000/svg" xmlns:xlink="http://www.w3.org/1999/xlink" xml:space="preserve" xmlns:serif="http://www.serif.com/" style="fill-rule:evenodd;clip-rule:evenodd;stroke-linejoin:round;stroke-miterlimit:1.41421;">
    <path d="M4.1,17.077L2.9,17.077L5.3,13.385C5.3,13.385 4.736,13.443 4.7,13L0.5,13L0.5,6L1.44,6C0.545,5.479 0,4.548 0,3.365C0,1.507 1.567,0 3.5,0C5.433,0 7,1.507 7,3.365C7,4.548 6.276,5.479 5.252,6L8.691,6C7.691,5.479 7,4.548 7,3.365C7,1.507 8.567,0 10.5,0C12.433,0 14,1.507 14,3.365C14,4.549 13.42,5.481 12.5,6.002L12.5,13L10.1,13C10.064,13.443 8.9,13.385 8.9,13.385L11.3,17.077L10.1,17.077L7.5,14.308L7.5,18L6.5,18L6.5,14.308L4.1,17.077ZM15.919,11.5L13.5,10.24L13.5,7.471L15.919,6.304C16.24,6.304 16.5,6.543 16.5,6.838L16.5,10.966C16.5,11.261 16.24,11.5 15.919,11.5Z"/>
</svg>
