<?xml version="1.0" encoding="UTF-8" standalone="no"?>
<!DOCTYPE svg PUBLIC "-//W3C//DTD SVG 1.1//EN" "http://www.w3.org/Graphics/SVG/1.1/DTD/svg11.dtd">
<svg width="100%" height="100%" viewBox="0 0 20 16" version="1.1" xmlns="http://www.w3.org/2000/svg" xmlns:xlink="http://www.w3.org/1999/xlink" xml:space="preserve" xmlns:serif="http://www.serif.com/" style="fill-rule:evenodd;clip-rule:evenodd;stroke-linejoin:round;stroke-miterlimit:1.41421;">
    <g transform="matrix(0.492726,0,0,0.476192,-169.655,-210.667)">
        <g>
            <path d="M381.866,448.7C383.412,448.7 384.91,450.303 384.91,451.85L384.91,472.85C384.91,474.396 383.412,476 381.866,476L347.364,476C345.818,476 344.32,474.396 344.32,472.85L344.32,451.85C344.32,450.303 345.818,448.7 347.364,448.7L354.467,448.7C354.467,448.7 354.467,447.483 354.467,445.55C354.467,443.617 355.579,442.4 357.512,442.4L371.718,442.4C373.651,442.4 374.763,443.617 374.763,445.55C374.763,447.483 374.763,448.7 374.763,448.7L381.866,448.7Z"/>
            <clipPath id="_clip1">
                <path d="M381.866,448.7C383.412,448.7 384.91,450.303 384.91,451.85L384.91,472.85C384.91,474.396 383.412,476 381.866,476L347.364,476C345.818,476 344.32,474.396 344.32,472.85L344.32,451.85C344.32,450.303 345.818,448.7 347.364,448.7L354.467,448.7C354.467,448.7 354.467,447.483 354.467,445.55C354.467,443.617 355.579,442.4 357.512,442.4L371.718,442.4C373.651,442.4 374.763,443.617 374.763,445.55C374.763,447.483 374.763,448.7 374.763,448.7L381.866,448.7Z"/>
            </clipPath>
            <g clip-path="url(#_clip1)">
                <g transform="matrix(1.25,0,0,1.25,-91.1538,-115.325)">
                    <path d="M364.615,452.9C369.253,452.9 372.733,456.661 372.733,461.3C372.733,465.939 369.253,469.7 364.615,469.7C359.977,469.7 356.497,465.939 356.497,461.3C356.497,456.661 359.977,452.9 364.615,452.9Z" style="fill:white;"/>
                </g>
                <path d="M364.615,452.9C369.253,452.9 372.733,456.661 372.733,461.3C372.733,465.939 369.253,469.7 364.615,469.7C359.977,469.7 356.497,465.939 356.497,461.3C356.497,456.661 359.977,452.9 364.615,452.9Z" style="fill:white;"/>
            </g>
        </g>
    </g>
</svg>
