<?xml version="1.0" encoding="UTF-8" standalone="no"?>
<!DOCTYPE svg PUBLIC "-//W3C//DTD SVG 1.1//EN" "http://www.w3.org/Graphics/SVG/1.1/DTD/svg11.dtd">
<svg width="100%" height="100%" viewBox="0 0 32 32" version="1.1" xmlns="http://www.w3.org/2000/svg" xmlns:xlink="http://www.w3.org/1999/xlink" xml:space="preserve" xmlns:serif="http://www.serif.com/" style="fill-rule:evenodd;clip-rule:evenodd;stroke-linejoin:round;stroke-miterlimit:1.41421;">
    <path d="M17.094,18.048C15.976,18.956 14.551,19.5 13,19.5C9.413,19.5 6.5,16.587 6.5,13C6.5,9.413 9.413,6.5 13,6.5C16.587,6.5 19.5,9.413 19.5,13C19.5,14.522 18.976,15.923 18.098,17.031L19.553,18.487C20.094,17.958 20.962,17.962 21.498,18.498L25.522,22.522C26.062,23.062 26.062,23.938 25.522,24.478L24.519,25.481C23.98,26.02 23.103,26.02 22.563,25.481L18.539,21.457C18,20.917 18,20.041 18.539,19.501L18.543,19.497L17.094,18.048ZM13,8C15.76,8 18,10.24 18,13C18,15.76 15.76,18 13,18C10.24,18 8,15.76 8,13C8,10.24 10.24,8 13,8ZM9.927,11.886L15.927,11.886L15.927,13.886L9.927,13.886L9.927,11.886Z"/>
</svg>
