<?xml version="1.0" encoding="UTF-8" standalone="no"?>
<!DOCTYPE svg PUBLIC "-//W3C//DTD SVG 1.1//EN" "http://www.w3.org/Graphics/SVG/1.1/DTD/svg11.dtd">
<svg width="100%" height="100%" viewBox="0 0 20 16" version="1.1" xmlns="http://www.w3.org/2000/svg" xmlns:xlink="http://www.w3.org/1999/xlink" xml:space="preserve" xmlns:serif="http://www.serif.com/" style="fill-rule:evenodd;clip-rule:evenodd;stroke-linejoin:round;stroke-miterlimit:1.41421;">
    <path d="M18.5,16L1.5,16C0.739,16 0,15.237 0,14.5L0,4.5C0,3.764 0.739,3 1.5,3L5,3C5,3 5,2.421 5,1.5C5,0.58 5.548,0 6.5,0L13.5,0C14.453,0 15,0.58 15,1.5L15,3L18.5,3C19.262,3 20,3.764 20,4.5L20,14.5C20,15.237 19.262,16 18.5,16ZM10,4C12.857,4 15,6.239 15,9C15,11.762 12.857,14 10,14C7.144,14 5,11.762 5,9C5,6.239 7.144,4 10,4Z"/>
</svg>
