<?xml version="1.0" encoding="UTF-8" standalone="no"?>
<!DOCTYPE svg PUBLIC "-//W3C//DTD SVG 1.1//EN" "http://www.w3.org/Graphics/SVG/1.1/DTD/svg11.dtd">
<svg width="100%" height="100%" viewBox="0 0 34 34" version="1.1" xmlns="http://www.w3.org/2000/svg" xmlns:xlink="http://www.w3.org/1999/xlink" xml:space="preserve" xmlns:serif="http://www.serif.com/" style="fill-rule:evenodd;clip-rule:evenodd;stroke-linejoin:round;stroke-miterlimit:1.41421;">
    <g id="new-window" serif:id="new window" transform="matrix(0.495612,0.495612,-0.495612,0.495612,100.226,-167.253)">
        <g>
            <g transform="matrix(1.00885,-1.00885,1.00885,1.00885,67.6201,269.847)">
                <path d="M23,11L22,11L22,9L8,9L8,19L9,19L9,20L7,20L7,8L23,8L23,11Z"/>
            </g>
            <g transform="matrix(1.00885,-1.00885,1.00885,1.00885,67.6201,269.847)">
                <path d="M27,12L27,25L10,25L10,12L27,12ZM26,13L11,13L11,24L26,24L26,13Z"/>
            </g>
        </g>
    </g>
</svg>
