<?xml version="1.0" encoding="UTF-8" standalone="no"?>
<!DOCTYPE svg PUBLIC "-//W3C//DTD SVG 1.1//EN" "http://www.w3.org/Graphics/SVG/1.1/DTD/svg11.dtd">
<svg width="100%" height="100%" viewBox="0 0 521 409" version="1.1" xmlns="http://www.w3.org/2000/svg" xmlns:xlink="http://www.w3.org/1999/xlink" xml:space="preserve" xmlns:serif="http://www.serif.com/" style="fill-rule:evenodd;clip-rule:evenodd;stroke-linejoin:round;stroke-miterlimit:1.41421;">
    <g transform="matrix(5.20833,0,0,5.20833,0,0)">
        <g transform="matrix(2.7027,0,0,2.7027,0,0)">
            <g id="PIP">
                <path d="M19,17L37,17L37,29L19,29L19,17ZM34,15L32,15L32,2L2,2L2,21L17,21L17,23L0,23L0,0L34,0L34,15ZM15.64,8.356L17.998,5.999L17.998,14.999L8.997,14.997L11.41,12.585L6.725,7.9L10.955,3.67L15.64,8.356Z"/>
            </g>
        </g>
    </g>
</svg>
