<?xml version="1.0" encoding="UTF-8" standalone="no"?>
<!DOCTYPE svg PUBLIC "-//W3C//DTD SVG 1.1//EN" "http://www.w3.org/Graphics/SVG/1.1/DTD/svg11.dtd">
<svg width="100%" height="100%" viewBox="0 0 34 34" version="1.1" xmlns="http://www.w3.org/2000/svg" xmlns:xlink="http://www.w3.org/1999/xlink" xml:space="preserve" xmlns:serif="http://www.serif.com/" style="fill-rule:evenodd;clip-rule:evenodd;stroke-linejoin:round;stroke-miterlimit:1.41421;">
    <path d="M34,34L0,34L0,0L34,0L34,34ZM32,22L25,22L25,32L32,32L32,22ZM23,22L2,22L2,32L23,32L23,22ZM32,2L2,2L2,20L32,20L32,2ZM17,4.455C20.587,4.455 23.5,7.387 23.5,11C23.5,14.613 20.587,17.545 17,17.545C13.413,17.545 10.5,14.613 10.5,11C10.5,7.387 13.413,4.455 17,4.455ZM21,11.114L15,14.728L15,7.5L21,11.114Z"/>
</svg>
