<?xml version="1.0" encoding="UTF-8" standalone="no"?>
<!DOCTYPE svg PUBLIC "-//W3C//DTD SVG 1.1//EN" "http://www.w3.org/Graphics/SVG/1.1/DTD/svg11.dtd">
<svg width="100%" height="100%" viewBox="0 0 39 32" version="1.1" xmlns="http://www.w3.org/2000/svg" xmlns:xlink="http://www.w3.org/1999/xlink" xml:space="preserve" xmlns:serif="http://www.serif.com/" style="fill-rule:evenodd;clip-rule:evenodd;stroke-linejoin:round;stroke-miterlimit:1.41421;">
    <g transform="matrix(1.43396,0,0,1.57895,-350.104,-74)">
        <path d="M271,50.995C271,49.065 269.277,47.5 267.152,47.5C267.152,47.5 260.884,46.867 257.75,46.867C254.616,46.867 248.348,47.5 248.348,47.5C246.223,47.5 244.5,49.065 244.5,50.995C244.5,50.995 244.151,55.036 244.151,56.842C244.151,58.843 244.5,63.005 244.5,63.005C244.5,64.935 246.223,66.5 248.348,66.5C248.348,66.5 254.965,67.133 258.099,67.133C261.124,67.133 267.152,66.5 267.152,66.5C269.277,66.5 271,64.935 271,63.005C271,63.005 271.349,59.002 271.349,57C271.349,54.998 271,50.995 271,50.995Z"/>
    </g>
</svg>
