<?xml version="1.0" encoding="UTF-8" standalone="no"?>
<!DOCTYPE svg PUBLIC "-//W3C//DTD SVG 1.1//EN" "http://www.w3.org/Graphics/SVG/1.1/DTD/svg11.dtd">
<svg width="100%" height="100%" viewBox="0 0 27 25" version="1.1" xmlns="http://www.w3.org/2000/svg" xmlns:xlink="http://www.w3.org/1999/xlink" xml:space="preserve" xmlns:serif="http://www.serif.com/" style="fill-rule:evenodd;clip-rule:evenodd;stroke-linejoin:round;stroke-miterlimit:1.41421;">
    <g id="social" transform="matrix(1,0,0,1,-326,-7.43348)">
        <path d="M345.617,26.126C346.786,24.868 347.786,24.42 348.89,24.42C351.099,24.42 352.89,26.211 352.89,28.42C352.89,30.629 351.099,32.42 348.89,32.42C346.681,32.42 344.89,30.629 344.89,28.42C344.89,28.006 344.953,27.606 344.913,28L332.858,22.796C332.105,23.552 331.105,24 330,24C327.791,24 326,22.209 326,20C326,17.791 327.791,16 330,16C331.105,16 332.105,16.448 333.025,17.388L342.169,12.108C342.22,12.512 342.108,11.986 342.108,11.433C342.108,9.224 343.899,7.433 346.108,7.433C348.317,7.433 350.108,9.224 350.108,11.433C350.108,13.643 348.317,15.433 346.108,15.433C345.003,15.433 344.003,14.986 342.994,13.941L333.916,19.183C333.888,18.922 334,19.448 334,20C334,20.552 333.888,21.078 333.856,21.049L345.617,26.126Z"/>
    </g>
</svg>
