<?xml version="1.0" encoding="UTF-8" standalone="no"?>
<!DOCTYPE svg PUBLIC "-//W3C//DTD SVG 1.1//EN" "http://www.w3.org/Graphics/SVG/1.1/DTD/svg11.dtd">
<svg width="100%" height="100%" viewBox="0 0 33 27" version="1.1" xmlns="http://www.w3.org/2000/svg" xmlns:xlink="http://www.w3.org/1999/xlink" xml:space="preserve" xmlns:serif="http://www.serif.com/" style="fill-rule:evenodd;clip-rule:evenodd;stroke-linejoin:round;stroke-miterlimit:1.41421;">
    <g id="statistics" transform="matrix(1,0,0,1,-284.268,-7.26795)">
        <g transform="matrix(1,0,0,1,284.268,7.26795)">
            <g id="statistics1" serif:id="statistics">
                <path d="M2.732,15.07L7.072,9.862L12.955,14.274L16.878,7.9L22.479,10.955L31.084,0.326C31.602,0.745 32.12,1.165 32.638,1.584L22.985,13.509L17.586,10.564L13.434,17.133L7.392,12.602L2.732,18.194L2.732,23.732L31.732,23.732L31.732,25.732L0.732,25.732C0.732,25.732 0.732,9.065 0.732,0.732L2.732,0.732L2.732,15.07Z"/>
            </g>
        </g>
    </g>
</svg>
