<?xml version="1.0" encoding="UTF-8" standalone="no"?>
<!DOCTYPE svg PUBLIC "-//W3C//DTD SVG 1.1//EN" "http://www.w3.org/Graphics/SVG/1.1/DTD/svg11.dtd">
<svg width="100%" height="100%" viewBox="0 0 25 29" version="1.1" xmlns="http://www.w3.org/2000/svg" xmlns:xlink="http://www.w3.org/1999/xlink" xml:space="preserve" xmlns:serif="http://www.serif.com/" style="fill-rule:evenodd;clip-rule:evenodd;stroke-linejoin:round;stroke-miterlimit:1.41421;">
    <g id="volume-low" serif:id="volume low" transform="matrix(1,0,0,1,-165,-5)">
        <g>
            <g transform="matrix(1,0,0,1,0.75,-1)">
                <path d="M184.233,14.077C188.981,14.489 191.571,24.435 184.954,27.208C183.497,27.819 181.723,25.826 183.988,24.902C187.22,23.511 187.697,17.939 183.734,16.5C183.734,16.5 181.944,14.012 184.233,14.077Z" style="fill-rule:nonzero;"/>
            </g>
            <g transform="matrix(1,0,0,1,40,0)">
                <path d="M131.499,14L139.68,5C140.961,5 142,6.039 142,7.32L142,31.68C142,32.961 140.961,34 139.68,34L131.499,25L127.375,25C126.063,25 125,23.937 125,22.625L125,16.375C125,15.063 126.063,14 127.375,14L131.499,14Z"/>
            </g>
        </g>
    </g>
</svg>
