<?xml version="1.0" encoding="UTF-8" standalone="no"?>
<!DOCTYPE svg PUBLIC "-//W3C//DTD SVG 1.1//EN" "http://www.w3.org/Graphics/SVG/1.1/DTD/svg11.dtd">
<svg width="100%" height="100%" viewBox="0 0 34 30" version="1.1" xmlns="http://www.w3.org/2000/svg" xmlns:xlink="http://www.w3.org/1999/xlink" xml:space="preserve" xmlns:serif="http://www.serif.com/" style="fill-rule:evenodd;clip-rule:evenodd;stroke-linejoin:round;stroke-miterlimit:1.41421;">
    <g transform="matrix(1,0,0,1,-164.25,-6)">
        <path d="M184.233,14.077C188.981,14.489 191.571,24.435 184.954,27.208C183.497,27.819 181.723,25.826 183.988,24.902C187.22,23.511 187.697,17.939 183.734,16.5C183.734,16.5 181.944,14.012 184.233,14.077Z" style="fill-rule:nonzero;"/>
    </g>
    <g transform="matrix(1.79727,0,0,1.79727,-310.137,-22.5434)">
        <path d="M184.236,14.634C184.819,14.72 184.834,14.837 185.078,14.956C188.213,16.489 189.629,20.834 187.848,23.947C187.088,25.275 185.842,26.312 184.395,26.83C184.395,26.83 184.071,26.925 183.815,26.778C183.217,26.436 183.496,25.849 184.723,25.159C187.985,23.325 187.943,17.417 183.927,15.98C183.927,15.98 182.939,14.544 184.236,14.634Z" style="fill-rule:nonzero;"/>
    </g>
    <g transform="matrix(2.44245,0,0,2.44245,-427.303,-35.9308)">
        <path d="M184.199,14.815C184.625,14.866 186.828,16.03 187.775,17.801C189.443,20.92 187.935,25.329 184.388,26.637C184.388,26.637 183.459,26.646 183.677,26.009C183.808,25.624 184.344,25.578 184.77,25.344C187.184,24.016 188.202,20.604 186.8,18.153C186.181,17.07 185.166,16.228 183.988,15.807C183.988,15.807 183.242,14.787 184.199,14.815Z" style="fill-rule:nonzero;"/>
    </g>
    <g transform="matrix(1,0,0,1,-125,-5)">
        <path d="M131.499,14L139.68,5C140.961,5 142,6.039 142,7.32L142,31.68C142,32.961 140.961,34 139.68,34L131.499,25L127.375,25C126.063,25 125,23.937 125,22.625L125,16.375C125,15.063 126.063,14 127.375,14L131.499,14Z"/>
    </g>
</svg>
