<?xml version="1.0" encoding="UTF-8" standalone="no"?>
<!DOCTYPE svg PUBLIC "-//W3C//DTD SVG 1.1//EN" "http://www.w3.org/Graphics/SVG/1.1/DTD/svg11.dtd">
<svg width="100%" height="100%" viewBox="0 0 31 31" version="1.1" xmlns="http://www.w3.org/2000/svg" xmlns:xlink="http://www.w3.org/1999/xlink" xml:space="preserve" xmlns:serif="http://www.serif.com/" style="fill-rule:evenodd;clip-rule:evenodd;stroke-linejoin:round;stroke-miterlimit:1.41421;">
    <g id="volume-mute" serif:id="volume mute" transform="matrix(1,0,0,1,-123,-4.71142)">
        <path d="M142,28.522L142,31.68C142,32.961 140.961,34 139.68,34L131.499,25L127.375,25C126.063,25 125,23.937 125,22.625L125,16.375C125,15.063 126.063,14 127.375,14L127.478,14L142,28.522ZM151.228,34.983L123,6.756L125.044,4.711L132.848,12.516L139.68,5C140.961,5 142,6.039 142,7.32L142,21.667L153.272,32.939L151.228,34.983Z"/>
    </g>
</svg>
