<?xml version="1.0" encoding="UTF-8" standalone="no"?>
<!DOCTYPE svg PUBLIC "-//W3C//DTD SVG 1.1//EN" "http://www.w3.org/Graphics/SVG/1.1/DTD/svg11.dtd">
<svg width="100%" height="100%" viewBox="0 0 59 59" version="1.1" xmlns="http://www.w3.org/2000/svg" xmlns:xlink="http://www.w3.org/1999/xlink" xml:space="preserve" xmlns:serif="http://www.serif.com/" style="fill-rule:evenodd;clip-rule:evenodd;stroke-linejoin:round;stroke-miterlimit:1.41421;">
    <path d="M31.786,33.129C29.69,34.919 26.97,36 24,36C17.377,36 12,30.623 12,24C12,17.377 17.377,12 24,12C30.623,12 36,17.377 36,24C36,26.68 35.119,29.156 33.632,31.154L36.816,34.338C37.838,33.339 39.479,33.346 40.493,34.359L48.102,41.968C49.123,42.989 49.123,44.646 48.102,45.667L46.206,47.563C45.185,48.584 43.528,48.584 42.507,47.563L34.898,39.954C33.878,38.933 33.878,37.276 34.898,36.255L34.905,36.248L31.786,33.129ZM23.984,15C28.96,15 33,19.033 33,24C33,28.967 28.96,33 23.984,33C19.008,33 14.968,28.967 14.968,24C14.968,19.033 19.008,15 23.984,15Z"/>
</svg>
